<mxfile host="Electron" modified="2023-05-06T01:09:03.740Z" agent="Mozilla/5.0 (Windows NT 10.0; Win64; x64) AppleWebKit/537.36 (KHTML, like Gecko) draw.io/21.2.8 Chrome/112.0.5615.165 Electron/24.2.0 Safari/537.36" etag="ZdORzUlVWRyFuOW46p1y" version="21.2.8" type="device">
  <diagram name="Page-1" id="1P0BDkxg8NpYrqQd53E_">
    <mxGraphModel dx="712" dy="835" grid="1" gridSize="10" guides="1" tooltips="1" connect="1" arrows="1" fold="1" page="1" pageScale="1" pageWidth="850" pageHeight="1100" math="0" shadow="0">
      <root>
        <mxCell id="0" />
        <mxCell id="1" parent="0" />
        <mxCell id="H-p9NEX7iDgcCFGtxz2--47" value="" style="edgeStyle=orthogonalEdgeStyle;rounded=0;orthogonalLoop=1;jettySize=auto;html=1;" parent="1" source="H-p9NEX7iDgcCFGtxz2--1" target="H-p9NEX7iDgcCFGtxz2--2" edge="1">
          <mxGeometry relative="1" as="geometry" />
        </mxCell>
        <mxCell id="H-p9NEX7iDgcCFGtxz2--1" value="inicio" style="ellipse;whiteSpace=wrap;html=1;" parent="1" vertex="1">
          <mxGeometry x="115" y="10" width="80" height="40" as="geometry" />
        </mxCell>
        <mxCell id="sCHSUmpNLC7M-MzyfCxp-1" value="" style="edgeStyle=orthogonalEdgeStyle;rounded=0;orthogonalLoop=1;jettySize=auto;html=1;" edge="1" parent="1" source="H-p9NEX7iDgcCFGtxz2--2" target="H-p9NEX7iDgcCFGtxz2--62">
          <mxGeometry relative="1" as="geometry" />
        </mxCell>
        <mxCell id="H-p9NEX7iDgcCFGtxz2--2" value="&lt;div&gt;int CantVal, val, CantValPos = 0, CantValNeg = 0, CantValCer = 0, SumValPos = 0, SumValNeg = 0, CantVec = 0;&lt;/div&gt;&lt;div&gt;float ProPos = 0, ProNeg = 0;&lt;/div&gt;" style="shape=parallelogram;perimeter=parallelogramPerimeter;whiteSpace=wrap;html=1;fixedSize=1;" parent="1" vertex="1">
          <mxGeometry y="70" width="310" height="80" as="geometry" />
        </mxCell>
        <mxCell id="H-p9NEX7iDgcCFGtxz2--74" value="" style="edgeStyle=orthogonalEdgeStyle;rounded=0;orthogonalLoop=1;jettySize=auto;html=1;entryX=0;entryY=0.5;entryDx=0;entryDy=0;" parent="1" source="H-p9NEX7iDgcCFGtxz2--5" edge="1">
          <mxGeometry relative="1" as="geometry">
            <mxPoint x="506" y="400" as="targetPoint" />
          </mxGeometry>
        </mxCell>
        <mxCell id="sCHSUmpNLC7M-MzyfCxp-37" value="" style="edgeStyle=orthogonalEdgeStyle;rounded=0;orthogonalLoop=1;jettySize=auto;html=1;" edge="1" parent="1" source="H-p9NEX7iDgcCFGtxz2--5" target="sCHSUmpNLC7M-MzyfCxp-16">
          <mxGeometry relative="1" as="geometry" />
        </mxCell>
        <mxCell id="H-p9NEX7iDgcCFGtxz2--5" value="CantVec &lt; CantVal" style="rhombus;whiteSpace=wrap;html=1;" parent="1" vertex="1">
          <mxGeometry x="111" y="355" width="90" height="90" as="geometry" />
        </mxCell>
        <mxCell id="sCHSUmpNLC7M-MzyfCxp-82" value="" style="edgeStyle=orthogonalEdgeStyle;rounded=0;orthogonalLoop=1;jettySize=auto;html=1;" edge="1" parent="1" source="H-p9NEX7iDgcCFGtxz2--8">
          <mxGeometry relative="1" as="geometry">
            <mxPoint x="287" y="740" as="targetPoint" />
          </mxGeometry>
        </mxCell>
        <mxCell id="H-p9NEX7iDgcCFGtxz2--8" value="ProPos = (float)SumValPos / CantValPos" style="rounded=0;whiteSpace=wrap;html=1;" parent="1" vertex="1">
          <mxGeometry x="227" y="650" width="120" height="50" as="geometry" />
        </mxCell>
        <mxCell id="H-p9NEX7iDgcCFGtxz2--71" value="" style="edgeStyle=orthogonalEdgeStyle;rounded=0;orthogonalLoop=1;jettySize=auto;html=1;entryX=0.5;entryY=0;entryDx=0;entryDy=0;" parent="1" source="H-p9NEX7iDgcCFGtxz2--15" target="H-p9NEX7iDgcCFGtxz2--5" edge="1">
          <mxGeometry relative="1" as="geometry">
            <mxPoint x="157" y="350" as="targetPoint" />
          </mxGeometry>
        </mxCell>
        <mxCell id="H-p9NEX7iDgcCFGtxz2--15" value="1" style="ellipse;whiteSpace=wrap;html=1;aspect=fixed;" parent="1" vertex="1">
          <mxGeometry x="66" y="310" width="40" height="40" as="geometry" />
        </mxCell>
        <mxCell id="H-p9NEX7iDgcCFGtxz2--60" value="" style="edgeStyle=orthogonalEdgeStyle;rounded=0;orthogonalLoop=1;jettySize=auto;html=1;" parent="1" source="H-p9NEX7iDgcCFGtxz2--61" target="H-p9NEX7iDgcCFGtxz2--62" edge="1">
          <mxGeometry relative="1" as="geometry" />
        </mxCell>
        <mxCell id="H-p9NEX7iDgcCFGtxz2--61" value="Ingrese la cantidad de valores a ingresar: &quot;" style="shape=document;whiteSpace=wrap;html=1;boundedLbl=1;" parent="1" vertex="1">
          <mxGeometry x="46" y="180" width="220" height="60" as="geometry" />
        </mxCell>
        <mxCell id="H-p9NEX7iDgcCFGtxz2--70" value="" style="edgeStyle=orthogonalEdgeStyle;rounded=0;orthogonalLoop=1;jettySize=auto;html=1;entryX=0.5;entryY=0;entryDx=0;entryDy=0;" parent="1" source="H-p9NEX7iDgcCFGtxz2--62" target="H-p9NEX7iDgcCFGtxz2--5" edge="1">
          <mxGeometry relative="1" as="geometry">
            <mxPoint x="157" y="350" as="targetPoint" />
          </mxGeometry>
        </mxCell>
        <mxCell id="H-p9NEX7iDgcCFGtxz2--62" value="CantVal" style="shape=parallelogram;perimeter=parallelogramPerimeter;whiteSpace=wrap;html=1;fixedSize=1;" parent="1" vertex="1">
          <mxGeometry x="96" y="260" width="120" height="40" as="geometry" />
        </mxCell>
        <mxCell id="sCHSUmpNLC7M-MzyfCxp-6" value="" style="edgeStyle=orthogonalEdgeStyle;rounded=0;orthogonalLoop=1;jettySize=auto;html=1;" edge="1" parent="1" source="sCHSUmpNLC7M-MzyfCxp-2" target="sCHSUmpNLC7M-MzyfCxp-4">
          <mxGeometry relative="1" as="geometry" />
        </mxCell>
        <mxCell id="sCHSUmpNLC7M-MzyfCxp-14" value="" style="edgeStyle=orthogonalEdgeStyle;rounded=0;orthogonalLoop=1;jettySize=auto;html=1;entryX=0.5;entryY=0;entryDx=0;entryDy=0;" edge="1" parent="1" source="sCHSUmpNLC7M-MzyfCxp-2" target="sCHSUmpNLC7M-MzyfCxp-7">
          <mxGeometry relative="1" as="geometry">
            <mxPoint x="407" y="515" as="targetPoint" />
          </mxGeometry>
        </mxCell>
        <mxCell id="sCHSUmpNLC7M-MzyfCxp-2" value="Val &amp;gt; 0" style="rhombus;whiteSpace=wrap;html=1;" vertex="1" parent="1">
          <mxGeometry x="242" y="470" width="90" height="90" as="geometry" />
        </mxCell>
        <mxCell id="sCHSUmpNLC7M-MzyfCxp-77" value="" style="edgeStyle=orthogonalEdgeStyle;rounded=0;orthogonalLoop=1;jettySize=auto;html=1;" edge="1" parent="1" source="sCHSUmpNLC7M-MzyfCxp-4" target="H-p9NEX7iDgcCFGtxz2--8">
          <mxGeometry relative="1" as="geometry" />
        </mxCell>
        <mxCell id="sCHSUmpNLC7M-MzyfCxp-4" value="CantPos++" style="rounded=0;whiteSpace=wrap;html=1;" vertex="1" parent="1">
          <mxGeometry x="227" y="580" width="120" height="40" as="geometry" />
        </mxCell>
        <mxCell id="sCHSUmpNLC7M-MzyfCxp-81" value="" style="edgeStyle=orthogonalEdgeStyle;rounded=0;orthogonalLoop=1;jettySize=auto;html=1;" edge="1" parent="1" source="sCHSUmpNLC7M-MzyfCxp-7" target="sCHSUmpNLC7M-MzyfCxp-78">
          <mxGeometry relative="1" as="geometry" />
        </mxCell>
        <mxCell id="sCHSUmpNLC7M-MzyfCxp-7" value="CantNeg++" style="rounded=0;whiteSpace=wrap;html=1;" vertex="1" parent="1">
          <mxGeometry x="358" y="580" width="120" height="40" as="geometry" />
        </mxCell>
        <mxCell id="sCHSUmpNLC7M-MzyfCxp-15" value="" style="edgeStyle=orthogonalEdgeStyle;rounded=0;orthogonalLoop=1;jettySize=auto;html=1;" edge="1" parent="1" source="sCHSUmpNLC7M-MzyfCxp-16" target="sCHSUmpNLC7M-MzyfCxp-17">
          <mxGeometry relative="1" as="geometry" />
        </mxCell>
        <mxCell id="sCHSUmpNLC7M-MzyfCxp-19" value="" style="edgeStyle=orthogonalEdgeStyle;rounded=0;orthogonalLoop=1;jettySize=auto;html=1;" edge="1" parent="1" source="sCHSUmpNLC7M-MzyfCxp-16" target="sCHSUmpNLC7M-MzyfCxp-2">
          <mxGeometry relative="1" as="geometry" />
        </mxCell>
        <mxCell id="sCHSUmpNLC7M-MzyfCxp-16" value="Val == 0" style="rhombus;whiteSpace=wrap;html=1;" vertex="1" parent="1">
          <mxGeometry x="111" y="470" width="90" height="90" as="geometry" />
        </mxCell>
        <mxCell id="sCHSUmpNLC7M-MzyfCxp-84" value="" style="edgeStyle=orthogonalEdgeStyle;rounded=0;orthogonalLoop=1;jettySize=auto;html=1;entryX=0;entryY=0.5;entryDx=0;entryDy=0;" edge="1" parent="1" source="sCHSUmpNLC7M-MzyfCxp-17" target="sCHSUmpNLC7M-MzyfCxp-89">
          <mxGeometry relative="1" as="geometry">
            <mxPoint x="267" y="760" as="targetPoint" />
            <Array as="points">
              <mxPoint x="156" y="760" />
            </Array>
          </mxGeometry>
        </mxCell>
        <mxCell id="sCHSUmpNLC7M-MzyfCxp-17" value="CantCer++" style="rounded=0;whiteSpace=wrap;html=1;" vertex="1" parent="1">
          <mxGeometry x="96" y="580" width="120" height="40" as="geometry" />
        </mxCell>
        <mxCell id="sCHSUmpNLC7M-MzyfCxp-71" style="edgeStyle=orthogonalEdgeStyle;rounded=0;orthogonalLoop=1;jettySize=auto;html=1;exitX=0.5;exitY=1;exitDx=0;exitDy=0;entryX=0.516;entryY=0.875;entryDx=0;entryDy=0;entryPerimeter=0;" edge="1" parent="1" source="H-p9NEX7iDgcCFGtxz2--2" target="H-p9NEX7iDgcCFGtxz2--2">
          <mxGeometry relative="1" as="geometry" />
        </mxCell>
        <mxCell id="sCHSUmpNLC7M-MzyfCxp-87" value="" style="edgeStyle=orthogonalEdgeStyle;rounded=0;orthogonalLoop=1;jettySize=auto;html=1;entryX=1;entryY=0.5;entryDx=0;entryDy=0;exitX=0.5;exitY=1;exitDx=0;exitDy=0;" edge="1" parent="1" source="sCHSUmpNLC7M-MzyfCxp-78" target="sCHSUmpNLC7M-MzyfCxp-89">
          <mxGeometry relative="1" as="geometry">
            <mxPoint x="360" y="760" as="sourcePoint" />
            <mxPoint x="307" y="760" as="targetPoint" />
            <Array as="points">
              <mxPoint x="418" y="760" />
            </Array>
          </mxGeometry>
        </mxCell>
        <mxCell id="sCHSUmpNLC7M-MzyfCxp-78" value="ProNeg = (float)SumValNeg / CantValNeg" style="rounded=0;whiteSpace=wrap;html=1;" vertex="1" parent="1">
          <mxGeometry x="358" y="650" width="120" height="50" as="geometry" />
        </mxCell>
        <mxCell id="sCHSUmpNLC7M-MzyfCxp-88" value="1" style="ellipse;whiteSpace=wrap;html=1;aspect=fixed;" vertex="1" parent="1">
          <mxGeometry x="267" y="800" width="40" height="40" as="geometry" />
        </mxCell>
        <mxCell id="sCHSUmpNLC7M-MzyfCxp-92" value="" style="edgeStyle=orthogonalEdgeStyle;rounded=0;orthogonalLoop=1;jettySize=auto;html=1;" edge="1" parent="1" source="sCHSUmpNLC7M-MzyfCxp-89" target="sCHSUmpNLC7M-MzyfCxp-88">
          <mxGeometry relative="1" as="geometry" />
        </mxCell>
        <mxCell id="sCHSUmpNLC7M-MzyfCxp-89" value="CantVec++" style="rounded=0;whiteSpace=wrap;html=1;" vertex="1" parent="1">
          <mxGeometry x="227" y="740" width="120" height="40" as="geometry" />
        </mxCell>
        <mxCell id="sCHSUmpNLC7M-MzyfCxp-95" value="" style="edgeStyle=orthogonalEdgeStyle;rounded=0;orthogonalLoop=1;jettySize=auto;html=1;entryX=0.5;entryY=0;entryDx=0;entryDy=0;" edge="1" parent="1" source="sCHSUmpNLC7M-MzyfCxp-93" target="sCHSUmpNLC7M-MzyfCxp-99">
          <mxGeometry relative="1" as="geometry">
            <mxPoint x="662.5" y="400" as="targetPoint" />
          </mxGeometry>
        </mxCell>
        <mxCell id="sCHSUmpNLC7M-MzyfCxp-100" value="" style="edgeStyle=orthogonalEdgeStyle;rounded=0;orthogonalLoop=1;jettySize=auto;html=1;" edge="1" parent="1" source="sCHSUmpNLC7M-MzyfCxp-93" target="sCHSUmpNLC7M-MzyfCxp-98">
          <mxGeometry relative="1" as="geometry" />
        </mxCell>
        <mxCell id="sCHSUmpNLC7M-MzyfCxp-93" value="CantValPos&lt;br&gt;&amp;gt; 0" style="rhombus;whiteSpace=wrap;html=1;" vertex="1" parent="1">
          <mxGeometry x="510" y="355" width="90" height="90" as="geometry" />
        </mxCell>
        <mxCell id="sCHSUmpNLC7M-MzyfCxp-104" value="" style="edgeStyle=orthogonalEdgeStyle;rounded=0;orthogonalLoop=1;jettySize=auto;html=1;" edge="1" parent="1" source="sCHSUmpNLC7M-MzyfCxp-98" target="sCHSUmpNLC7M-MzyfCxp-102">
          <mxGeometry relative="1" as="geometry" />
        </mxCell>
        <mxCell id="sCHSUmpNLC7M-MzyfCxp-98" value="&quot;El promedio de los valores positivos es: &quot;ProPos" style="rounded=0;whiteSpace=wrap;html=1;" vertex="1" parent="1">
          <mxGeometry x="487.5" y="470" width="135" height="50" as="geometry" />
        </mxCell>
        <mxCell id="sCHSUmpNLC7M-MzyfCxp-105" value="" style="edgeStyle=orthogonalEdgeStyle;rounded=0;orthogonalLoop=1;jettySize=auto;html=1;" edge="1" parent="1" source="sCHSUmpNLC7M-MzyfCxp-99" target="sCHSUmpNLC7M-MzyfCxp-102">
          <mxGeometry relative="1" as="geometry">
            <Array as="points">
              <mxPoint x="708" y="540" />
              <mxPoint x="555" y="540" />
            </Array>
          </mxGeometry>
        </mxCell>
        <mxCell id="sCHSUmpNLC7M-MzyfCxp-99" value="&quot;No se ingresaron valores positivos.&quot;" style="rounded=0;whiteSpace=wrap;html=1;" vertex="1" parent="1">
          <mxGeometry x="640" y="470" width="135" height="50" as="geometry" />
        </mxCell>
        <mxCell id="sCHSUmpNLC7M-MzyfCxp-108" value="" style="edgeStyle=orthogonalEdgeStyle;rounded=0;orthogonalLoop=1;jettySize=auto;html=1;" edge="1" parent="1" source="sCHSUmpNLC7M-MzyfCxp-102" target="sCHSUmpNLC7M-MzyfCxp-106">
          <mxGeometry relative="1" as="geometry" />
        </mxCell>
        <mxCell id="sCHSUmpNLC7M-MzyfCxp-110" value="" style="edgeStyle=orthogonalEdgeStyle;rounded=0;orthogonalLoop=1;jettySize=auto;html=1;entryX=0.5;entryY=0;entryDx=0;entryDy=0;" edge="1" parent="1" source="sCHSUmpNLC7M-MzyfCxp-102" target="sCHSUmpNLC7M-MzyfCxp-107">
          <mxGeometry relative="1" as="geometry">
            <mxPoint x="675" y="605" as="targetPoint" />
          </mxGeometry>
        </mxCell>
        <mxCell id="sCHSUmpNLC7M-MzyfCxp-102" value="CantValNeg&lt;br&gt;&amp;nbsp;&amp;gt; 0" style="rhombus;whiteSpace=wrap;html=1;" vertex="1" parent="1">
          <mxGeometry x="510" y="560" width="90" height="90" as="geometry" />
        </mxCell>
        <mxCell id="sCHSUmpNLC7M-MzyfCxp-112" value="" style="edgeStyle=orthogonalEdgeStyle;rounded=0;orthogonalLoop=1;jettySize=auto;html=1;" edge="1" parent="1" source="sCHSUmpNLC7M-MzyfCxp-106" target="sCHSUmpNLC7M-MzyfCxp-111">
          <mxGeometry relative="1" as="geometry" />
        </mxCell>
        <mxCell id="sCHSUmpNLC7M-MzyfCxp-106" value="&quot;El promedio de los valores negativos es: &lt;br&gt;&quot; ProNeg" style="rounded=0;whiteSpace=wrap;html=1;" vertex="1" parent="1">
          <mxGeometry x="487.5" y="670" width="135" height="50" as="geometry" />
        </mxCell>
        <mxCell id="sCHSUmpNLC7M-MzyfCxp-113" value="" style="edgeStyle=orthogonalEdgeStyle;rounded=0;orthogonalLoop=1;jettySize=auto;html=1;" edge="1" parent="1" source="sCHSUmpNLC7M-MzyfCxp-107" target="sCHSUmpNLC7M-MzyfCxp-111">
          <mxGeometry relative="1" as="geometry" />
        </mxCell>
        <mxCell id="sCHSUmpNLC7M-MzyfCxp-107" value="&quot;No se ingresaron valores negativos.&quot;" style="rounded=0;whiteSpace=wrap;html=1;" vertex="1" parent="1">
          <mxGeometry x="640" y="670" width="135" height="50" as="geometry" />
        </mxCell>
        <mxCell id="sCHSUmpNLC7M-MzyfCxp-115" value="" style="edgeStyle=orthogonalEdgeStyle;rounded=0;orthogonalLoop=1;jettySize=auto;html=1;" edge="1" parent="1" source="sCHSUmpNLC7M-MzyfCxp-111" target="sCHSUmpNLC7M-MzyfCxp-114">
          <mxGeometry relative="1" as="geometry" />
        </mxCell>
        <mxCell id="sCHSUmpNLC7M-MzyfCxp-111" value="&quot;La cantidad de valores iguales a cero ingresados es: &quot; CantValCer" style="rounded=0;whiteSpace=wrap;html=1;" vertex="1" parent="1">
          <mxGeometry x="560" y="760" width="135" height="70" as="geometry" />
        </mxCell>
        <mxCell id="sCHSUmpNLC7M-MzyfCxp-114" value="Fin" style="ellipse;whiteSpace=wrap;html=1;" vertex="1" parent="1">
          <mxGeometry x="587.5" y="860" width="80" height="40" as="geometry" />
        </mxCell>
      </root>
    </mxGraphModel>
  </diagram>
</mxfile>
